<?xml version="1.0" encoding="UTF-8"?>
<!DOCTYPE svg PUBLIC "-//W3C//DTD SVG 1.1//EN" "http://www.w3.org/Graphics/SVG/1.1/DTD/svg11.dtd">
<!-- Creator: CorelDRAW -->
<svg xmlns="http://www.w3.org/2000/svg" xml:space="preserve" width="144px" height="144px" version="1.1" style="shape-rendering:geometricPrecision; text-rendering:geometricPrecision; image-rendering:optimizeQuality; fill-rule:evenodd; clip-rule:evenodd"
viewBox="0 0 1.63 1.63"
 xmlns:xlink="http://www.w3.org/1999/xlink"
 xmlns:xodm="http://www.corel.com/coreldraw/odm/2003">
 <defs>
  <style type="text/css">
   <![CDATA[
    .fil0 {fill:black}
    .fil1 {fill:#E01B22}
    .fil2 {fill:#FEFEFE}
   ]]>
  </style>
 </defs>
 <g id="Camada_x0020_1">
  <metadata id="CorelCorpID_0Corel-Layer"/>
  <rect class="fil0" width="1.63" height="1.63" rx="0.18" ry="0.18"/>
  <path class="fil1" d="M0.88 0.93c0.02,0.01 0.03,0.03 0.03,0.06 0,0.05 -0.04,0.09 -0.09,0.09 -0.05,0 -0.09,-0.04 -0.09,-0.09 0,-0.03 0.01,-0.05 0.02,-0.06 0.01,-0.01 0.01,-0.01 0.01,-0.01l0 -0.84c0,0 0,-0.01 0.01,-0.01l0.09 0c0.01,0 0.02,0.01 0.02,0.01l0 0.84c0,0 0,0 0,0.01z"/>
  <path class="fil2" d="M0.67 0.63l0 -0.01c-0.02,-0.03 -0.05,-0.04 -0.08,-0.02 -0.03,0.01 -0.04,0.05 -0.02,0.07l0.09 0.16c0,0 0,0 0,0 0,0 0,0 0,0l-0.34 -0.2c-0.03,-0.01 -0.07,0 -0.08,0.02 -0.02,0.03 -0.01,0.07 0.02,0.08l0.35 0.2c0,0 0,0 0,0 0,0 0,0 0,0l-0.48 0c-0.03,0 -0.06,0.03 -0.06,0.06 0,0.03 0.03,0.06 0.06,0.06l0.48 0c0,0 0,0 0,0 0,0 0,0 0,0l-0.17 0.09c-0.03,0.02 -0.04,0.06 -0.02,0.08 0.01,0.03 0.05,0.04 0.08,0.02l0.16 -0.09c0,0 0,0 0,0 0,0 0,0 0,0l-0.19 0.33c-0.01,0.02 0,0.06 0.02,0.07 0.03,0.02 0.06,0.01 0.08,-0.02l0.19 -0.32c0,0 0,0 0,0 0,0 0,0 0,0l0 0.24c0,0.03 0.03,0.06 0.06,0.06 0.03,0 0.05,-0.03 0.05,-0.06l0 -0.25c0,0 0,0 0,0 0,0 0,0 0,0l0.1 0.17c0.02,0.03 0.05,0.04 0.08,0.02 0.02,-0.01 0.03,-0.05 0.02,-0.08l-0.1 -0.17c0,0 0,0 0,0 0,0 0,0 0,0l0.35 0.21c0.03,0.01 0.06,0 0.08,-0.03 0.01,-0.02 0,-0.06 -0.02,-0.07l-0.35 -0.2c0,0 0,0 0,0 0,0 0,0 0,0l0.47 0c0.03,0 0.06,-0.03 0.06,-0.06 0,-0.03 -0.03,-0.06 -0.06,-0.06l-0.46 0c0,0 0,0 0,0 0,0 0,0 0,0l0.16 -0.09c0.03,-0.02 0.04,-0.05 0.02,-0.08 -0.01,-0.03 -0.05,-0.04 -0.08,-0.02l-0.17 0.1c0,0 0,0 0,0 0,0 0,0 0,0l0.19 -0.33c0.02,-0.03 0.01,-0.07 -0.02,-0.08 -0.03,-0.02 -0.06,-0.01 -0.08,0.02l-0.1 0.18 0 0 -0.02 0.04c0,0 0,0 0,0l0 0.19c0,0 0,0 0,0 0.03,0.03 0.06,0.08 0.06,0.13 0,0.1 -0.08,0.18 -0.18,0.18l0 0c0,0 0,0 0,0l0 0c-0.1,0 -0.18,-0.08 -0.18,-0.18 0,-0.01 0,-0.03 0,-0.04l0 0c0,0 0,0 0,0 0,0 0,0 0,0 0.01,-0.04 0.03,-0.07 0.06,-0.09 0,0 0,0 0,0l0 -0.19c0,0 0,0 0,0l-0.03 -0.04z"/>
 </g>
</svg>
